HIERARCHY
ROOT Hips
{
	OFFSET 0.00000 0.00000 0.00000
	CHANNELS 6 Xposition Yposition Zposition Zrotation Yrotation Xrotation 
	JOINT LHipJoint
	{
		OFFSET 0 0 0
		CHANNELS 3 Zrotation Yrotation Xrotation
		JOINT LeftUpLeg
		{
			OFFSET 1.64549 -1.70879 0.84566
			CHANNELS 3 Zrotation Yrotation Xrotation
			JOINT LeftLeg
			{
				OFFSET 2.24963 -6.18082 0.00000
				CHANNELS 3 Zrotation Yrotation Xrotation
				JOINT LeftFoot
				{
					OFFSET 2.71775 -7.46697 0.00000
					CHANNELS 3 Zrotation Yrotation Xrotation
					JOINT LeftToeBase
					{
						OFFSET 0.18768 -0.51564 2.24737
						CHANNELS 3 Zrotation Yrotation Xrotation
						End Site
						{
							OFFSET 0.00000 -0.00000 1.15935
						}
					}
				}
			}
		}
	}
	JOINT RHipJoint
	{
		OFFSET 0 0 0
		CHANNELS 3 Zrotation Yrotation Xrotation
		JOINT RightUpLeg
		{
			OFFSET -1.58830 -1.70879 0.84566
			CHANNELS 3 Zrotation Yrotation Xrotation
			JOINT RightLeg
			{
				OFFSET -2.25006 -6.18201 0.00000
				CHANNELS 3 Zrotation Yrotation Xrotation
				JOINT RightFoot
				{
					OFFSET -2.72829 -7.49593 0.00000
					CHANNELS 3 Zrotation Yrotation Xrotation
					JOINT RightToeBase
					{
						OFFSET -0.21541 -0.59185 2.10643
						CHANNELS 3 Zrotation Yrotation Xrotation
						End Site
						{
							OFFSET -0.00000 -0.00000 1.09838
						}
					}
				}
			}
		}
	}
	JOINT LowerBack
	{
		OFFSET 0 0 0
		CHANNELS 3 Zrotation Yrotation Xrotation
		JOINT Spine
		{
			OFFSET 0.03142 2.10496 -0.11038
			CHANNELS 3 Zrotation Yrotation Xrotation
			JOINT Spine1
			{
				OFFSET -0.01863 2.10897 -0.06956
				CHANNELS 3 Zrotation Yrotation Xrotation
				JOINT Neck
				{
					OFFSET 0 0 0
					CHANNELS 3 Zrotation Yrotation Xrotation
					JOINT Neck1
					{
						OFFSET -0.02267 1.73238 0.00451
						CHANNELS 3 Zrotation Yrotation Xrotation
						JOINT Head
						{
							OFFSET -0.05808 1.54724 -0.61749
							CHANNELS 3 Zrotation Yrotation Xrotation
							End Site
							{
								OFFSET -0.01396 1.71468 -0.21082
							}
						}
					}
				}
				JOINT LeftShoulder
				{
					OFFSET 0 0 0
					CHANNELS 3 Zrotation Yrotation Xrotation
					JOINT LeftArm
					{
						OFFSET 3.44898 0.50298 0.21920
						CHANNELS 3 Zrotation Yrotation Xrotation
						JOINT LeftForeArm
						{
							OFFSET 5.41917 -0.00000 -0.00000
							CHANNELS 3 Zrotation Yrotation Xrotation
							JOINT LeftHand
							{
								OFFSET 2.44373 -0.00000 0.00000
								CHANNELS 3 Zrotation Yrotation Xrotation
								JOINT LeftFingerBase
								{
									OFFSET 0 0 0
									CHANNELS 3 Zrotation Yrotation Xrotation
									JOINT LeftHandIndex1
									{
										OFFSET 0.72750 -0.00000 0.00000
										CHANNELS 3 Zrotation Yrotation Xrotation
										End Site
										{
											OFFSET 0.58653 -0.00000 0.00000
										}
									}
								}
								JOINT LThumb
								{
									OFFSET 0 0 0
									CHANNELS 3 Zrotation Yrotation Xrotation
									End Site
									{
										OFFSET 0.59549 -0.00000 0.59549
									}
								}
							}
						}
					}
				}
				JOINT RightShoulder
				{
					OFFSET 0 0 0
					CHANNELS 3 Zrotation Yrotation Xrotation
					JOINT RightArm
					{
						OFFSET -3.23015 0.55830 0.31051
						CHANNELS 3 Zrotation Yrotation Xrotation
						JOINT RightForeArm
						{
							OFFSET -5.58976 -0.00010 0.00014
							CHANNELS 3 Zrotation Yrotation Xrotation
							JOINT RightHand
							{
								OFFSET -2.48060 -0.00000 0.00000
								CHANNELS 3 Zrotation Yrotation Xrotation
								JOINT RightFingerBase
								{
									OFFSET 0 0 0
									CHANNELS 3 Zrotation Yrotation Xrotation
									JOINT RightHandIndex1
									{
										OFFSET -0.81601 -0.00000 0.00000
										CHANNELS 3 Zrotation Yrotation Xrotation
										End Site
										{
											OFFSET -0.65789 -0.00000 0.00000
										}
									}
								}
								JOINT RThumb
								{
									OFFSET 0 0 0
									CHANNELS 3 Zrotation Yrotation Xrotation
									End Site
									{
										OFFSET -0.66793 -0.00000 0.66793
									}
								}
							}
						}
					}
				}
			}
		}
	}
}
MOTION
Frames: 15
Frame Time: 0.033333
2.72 18.28 -15.77 163.09 82.90 189.53 0.00 0.00 0.00 -22.54 -12.36 -33.46 2.48 9.81 28.35 -3.94 35.24 0.84 0.39 4.03 11.16 0.00 0.00 0.00 15.19 15.09 -33.48 -2.01 -8.90 25.47 1.56 -26.98 -27.96 -2.41 -9.67 27.91 9.82 -0.49 -1.21 13.09 3.81 -14.80 9.15 2.71 -16.99 -3.44 -19.41 -8.96 10.58 -25.44 -4.11 2.41 -12.48 2.05 0.00 -0.00 0.00 -17.48 48.97 21.29 80.66 -59.67 -51.92 -0.00 -0.00 47.27 42.53 -4.02 -3.68 -7.12 0.00 -0.00 11.82 24.54 -5.97 0.00 -0.00 0.00 10.83 -22.97 32.58 -21.88 32.84 -6.52 0.00 0.00 24.43 -46.78 45.66 -37.27 7.12 -0.00 -0.00 -3.08 26.17 -4.13
2.60 18.32 -15.70 174.89 73.20 201.32 0.00 0.00 0.00 -20.29 -13.66 -34.91 2.49 9.83 28.42 -4.16 35.06 -2.06 2.29 9.44 27.19 0.00 0.00 0.00 15.76 15.11 -31.94 -1.97 -8.81 25.21 1.30 -25.23 -26.50 -3.67 -11.71 34.72 11.19 -0.38 -2.00 12.66 4.47 -15.74 7.83 2.98 -17.79 -1.56 -19.88 -10.56 10.81 -26.04 -5.37 2.13 -12.77 1.69 -0.00 -0.00 0.00 -18.36 47.38 15.93 69.54 -58.36 -42.38 -0.00 -0.00 46.15 43.82 -2.18 -2.09 -7.12 0.00 -0.00 13.10 26.90 -5.90 -0.00 -0.00 0.00 10.05 -25.43 26.35 -17.25 27.19 -4.20 0.00 0.00 24.86 -47.50 47.37 -38.77 7.12 -0.00 -0.00 -2.62 28.10 -3.55
2.48 18.35 -15.61 176.98 64.19 202.49 0.00 0.00 0.00 -20.20 -13.02 -35.57 2.49 9.82 28.38 -3.81 34.30 -0.39 2.77 10.30 29.97 0.00 0.00 0.00 15.92 14.38 -29.12 -1.88 -8.61 24.58 -0.53 -18.33 -29.97 -5.16 -13.56 41.52 10.82 -1.13 -1.92 14.05 4.17 -16.20 9.02 3.07 -17.89 -3.74 -19.57 -10.68 12.32 -25.29 -6.72 2.92 -12.37 1.75 0.00 -0.00 0.00 -22.20 49.77 11.18 60.90 -56.55 -35.09 -0.00 -0.00 45.24 41.81 -2.69 -2.40 -7.12 0.00 -0.00 11.51 26.34 -5.31 0.00 -0.00 0.00 8.99 -24.38 17.30 -13.72 22.33 -2.72 0.00 0.00 29.32 -44.45 47.43 -35.84 7.12 -0.00 -0.00 -1.31 26.75 -1.76
2.35 18.32 -15.47 177.82 54.51 203.21 0.00 0.00 0.00 -20.34 -12.46 -37.92 2.58 9.98 28.91 -3.64 33.41 -0.93 2.09 9.05 25.94 0.00 0.00 0.00 17.69 11.65 -29.52 -1.78 -8.40 23.94 3.24 -30.09 -15.72 -1.23 -7.03 19.79 10.60 -1.21 -2.66 13.73 4.39 -16.75 8.73 3.36 -18.14 -1.69 -19.46 -11.26 10.82 -25.12 -8.39 2.34 -12.39 0.77 -0.00 -0.00 0.00 -24.30 48.10 5.31 52.51 -53.96 -28.19 -0.00 -0.00 48.16 44.98 1.61 1.61 -7.12 0.00 -0.00 14.72 32.02 -4.82 -0.00 -0.00 0.00 9.56 -25.81 10.12 -11.47 19.01 -1.93 0.00 0.00 34.28 -42.76 44.66 -33.02 7.12 -0.00 -0.00 -1.72 23.39 -2.26
2.21 18.32 -15.30 179.44 45.57 203.85 0.00 0.00 0.00 -20.35 -11.74 -38.95 2.57 9.97 28.88 -3.86 33.22 -4.71 2.46 9.76 28.20 0.00 0.00 0.00 19.06 11.28 -28.08 -1.80 -8.43 24.03 1.45 -24.06 -22.40 -2.29 -9.45 27.21 10.84 -0.54 -3.37 13.00 5.22 -15.99 8.25 3.92 -17.50 -2.54 -19.26 -11.91 11.20 -24.64 -9.12 2.56 -12.10 0.77 -0.00 -0.00 0.00 -25.75 47.32 3.47 48.64 -52.43 -25.09 -0.00 -0.00 45.14 39.48 -4.41 -3.62 -7.12 0.00 -0.00 9.53 24.29 -4.83 -0.00 -0.00 0.00 12.06 -27.22 -1.23 -9.81 16.44 -1.42 0.00 0.00 39.51 -37.80 38.59 -25.81 7.12 -0.00 -0.00 -1.46 15.29 -1.79
2.07 18.26 -15.11 182.84 35.63 204.60 0.00 0.00 0.00 -18.41 -10.79 -40.32 2.82 10.40 30.30 -3.38 31.43 -4.10 1.41 7.52 21.26 0.00 0.00 0.00 22.83 11.45 -25.56 -1.60 -7.98 22.64 2.72 -27.74 -9.26 -0.78 -5.65 15.79 12.38 -0.80 -1.51 13.86 6.50 -16.79 7.41 4.49 -19.28 -0.68 -17.33 -12.46 5.82 -22.57 -7.16 0.88 -11.14 0.45 0.00 0.00 0.00 -25.88 49.58 3.24 46.98 -51.70 -23.78 -0.00 -0.00 44.80 40.14 -3.27 -2.75 -7.12 0.00 -0.00 10.19 25.69 -4.84 0.00 0.00 0.00 13.27 -28.09 -9.21 -9.07 15.27 -1.22 0.00 0.00 41.93 -32.23 30.82 -17.90 7.12 -0.00 -0.00 -0.47 5.21 -0.52
1.97 18.19 -14.88 183.06 25.14 203.08 0.00 0.00 0.00 -18.93 -10.67 -40.89 2.86 10.46 30.47 -2.99 29.50 -4.99 1.57 7.91 22.43 0.00 0.00 0.00 23.33 13.92 -23.38 -1.66 -8.13 23.09 1.66 -23.04 -1.56 -0.00 -0.16 0.45 12.75 -0.15 -3.00 12.56 6.58 -15.40 6.32 4.53 -16.97 0.61 -15.04 -15.60 1.55 -19.80 -4.50 -0.71 -9.78 1.17 0.00 0.00 0.00 -29.05 45.87 -3.75 42.05 -49.24 -19.98 -0.00 -0.00 45.58 39.06 -3.85 -3.11 -7.12 0.00 -0.00 9.30 25.03 -4.55 0.00 0.00 0.00 17.82 -28.64 -21.57 -8.63 14.56 -1.10 0.00 0.00 40.37 -31.18 24.92 -14.30 7.12 -0.00 -0.00 -0.98 -1.48 -0.95
1.90 18.13 -14.54 183.07 14.96 201.50 0.00 0.00 0.00 -19.96 -10.27 -42.09 2.90 10.54 30.74 -2.46 28.32 0.00 2.57 9.96 28.84 0.00 0.00 0.00 22.83 18.51 -21.50 -1.85 -8.55 24.40 1.18 -20.44 1.01 -0.02 -0.89 2.45 11.16 -0.23 -0.99 12.37 7.41 -16.11 6.04 5.09 -18.57 1.43 -11.11 -17.03 -3.75 -14.68 0.16 -2.52 -7.41 2.56 -0.00 -0.00 0.00 -30.84 45.78 -7.25 39.21 -47.59 -17.85 -0.00 -0.00 45.54 39.92 -2.68 -2.24 -7.12 0.00 -0.00 10.11 26.45 -4.61 -0.00 -0.00 0.00 20.81 -28.24 -36.97 -8.14 13.78 -0.99 0.00 0.00 42.99 -30.35 22.02 -12.38 7.12 -0.00 -0.00 -0.93 -4.88 -0.85
1.84 18.07 -14.27 185.48 1.89 200.34 0.00 0.00 0.00 -17.52 -11.57 -43.64 3.22 11.04 32.43 -1.05 25.47 10.27 1.49 7.70 21.82 0.00 0.00 0.00 25.79 18.96 -20.16 -1.75 -8.31 23.67 0.34 -16.38 7.64 -0.05 1.38 -3.79 14.40 -0.39 -2.21 11.88 7.35 -14.95 4.33 4.95 -16.79 2.69 -6.57 -20.01 -8.25 -8.39 3.13 -3.69 -4.52 3.62 0.00 -0.00 0.00 -35.21 43.83 -14.28 35.17 -44.93 -14.93 -0.00 -0.00 45.20 38.21 -4.83 -3.79 -7.12 0.00 -0.00 8.55 23.85 -4.41 0.00 -0.00 0.00 24.50 -29.26 -36.92 -8.54 14.42 -1.08 0.00 0.00 28.71 -25.96 17.00 -8.10 7.12 -0.00 -0.00 1.26 -11.20 0.99
1.91 17.99 -13.94 185.58 -10.06 198.08 0.00 0.00 0.00 -18.60 -10.63 -43.69 3.07 10.81 31.64 0.22 20.08 15.92 0.60 4.96 13.79 0.00 0.00 0.00 26.59 20.17 -19.92 -2.01 -8.88 25.43 0.42 -16.62 6.80 -0.42 4.17 -11.57 13.39 5.77 -1.09 9.43 5.72 -16.64 3.61 -0.06 -18.22 4.22 -1.34 -18.11 -11.80 -1.94 5.38 -4.59 -1.79 4.40 -0.00 0.00 0.00 -35.72 44.41 -14.36 33.47 -43.69 -13.75 -0.00 -0.00 45.23 37.17 -4.71 -3.56 -7.12 0.00 -0.00 7.81 24.09 -3.98 -0.00 0.00 0.00 27.23 -30.53 -38.27 -8.66 14.62 -1.11 0.00 0.00 22.98 -23.44 12.52 -5.37 7.12 -0.00 -0.00 2.64 -16.38 1.79
2.00 17.87 -13.66 186.14 -22.01 196.52 0.00 0.00 0.00 -19.27 -9.50 -43.26 2.84 10.43 30.38 -0.63 19.93 7.99 1.92 8.70 24.85 0.00 0.00 0.00 27.65 18.13 -22.49 -2.49 -9.82 28.41 0.55 -16.71 5.16 -0.62 5.06 -14.07 12.05 5.44 -1.93 9.16 5.86 -15.25 3.64 0.67 -15.89 3.82 3.33 -24.30 -13.47 5.39 12.52 -4.50 1.12 8.41 -0.00 0.00 0.00 -39.42 40.64 -19.84 30.11 -40.99 -11.48 -0.00 -0.00 47.10 37.61 -5.19 -3.99 -7.12 0.00 -0.00 8.07 23.45 -4.23 -0.00 0.00 0.00 30.16 -30.01 -41.33 -8.89 14.98 -1.17 0.00 0.00 19.93 -22.05 9.40 -3.78 7.12 -0.00 -0.00 3.50 -19.86 2.11
2.14 17.69 -13.45 187.63 -34.31 194.64 0.00 0.00 0.00 -19.99 -7.64 -43.33 2.78 10.34 30.07 0.11 4.72 6.38 0.24 -3.15 -8.71 0.00 0.00 0.00 29.12 16.00 -25.19 -2.99 -10.68 31.22 0.84 -17.23 0.49 -0.69 5.30 -14.77 11.21 4.82 -2.47 8.51 5.38 -15.20 3.29 0.74 -15.48 6.21 8.36 -24.41 -14.56 12.56 17.22 -4.17 4.22 11.02 0.00 -0.00 0.00 -38.84 40.17 -19.14 29.25 -40.25 -10.92 -0.00 -0.00 44.96 36.40 -3.11 -2.29 -7.12 0.00 -0.00 7.42 26.11 -3.42 0.00 -0.00 0.00 32.19 -30.64 -44.08 -9.23 15.53 -1.26 0.00 0.00 23.53 -20.61 12.04 -4.49 7.12 -0.00 -0.00 4.59 -17.16 3.04
2.32 17.52 -13.25 189.96 -44.41 191.56 0.00 0.00 0.00 -19.80 -5.46 -44.15 3.11 10.87 31.86 0.10 3.71 -8.61 3.39 -11.30 -33.31 0.00 0.00 0.00 30.27 16.94 -26.34 -3.47 -11.41 33.69 1.14 -18.99 -2.53 -0.48 4.47 -12.39 10.01 4.73 -1.28 7.98 5.84 -15.07 3.18 1.26 -16.12 10.19 12.86 -19.18 -18.06 18.86 16.82 -4.97 7.17 11.51 -0.00 -0.00 0.00 -38.98 38.90 -21.66 26.98 -38.16 -9.49 -0.00 -0.00 46.45 38.64 -6.08 -4.84 -7.12 0.00 -0.00 8.69 22.24 -4.81 -0.00 -0.00 0.00 32.80 -31.22 -44.68 -9.26 15.57 -1.27 0.00 0.00 24.76 -20.61 13.94 -5.17 7.12 -0.00 -0.00 4.66 -15.17 3.29
2.34 17.43 -13.08 190.86 -56.41 189.65 0.00 0.00 0.00 -22.71 -2.59 -44.98 3.47 11.41 33.69 0.08 11.61 -17.54 2.71 -10.22 -29.68 0.00 0.00 0.00 29.30 13.89 -28.75 -3.96 -12.11 36.12 1.16 -18.84 -3.94 -1.45 7.60 -21.51 6.82 3.30 -3.68 8.96 3.75 -13.44 6.05 1.00 -12.83 11.13 16.99 -15.39 -21.91 25.53 14.97 -5.12 10.07 12.00 -0.00 0.00 0.00 -43.91 38.10 -26.72 25.72 -36.93 -8.72 -0.00 -0.00 46.88 39.30 -6.79 -5.53 -7.12 0.00 -0.00 9.06 21.27 -5.22 -0.00 0.00 0.00 30.60 -27.90 -47.58 -9.12 15.35 -1.23 0.00 0.00 26.30 -21.24 13.41 -5.15 7.12 -0.00 -0.00 4.20 -15.66 2.92
2.38 17.34 -12.94 196.28 -66.54 184.26 0.00 0.00 0.00 -25.58 6.20 -51.33 4.50 12.80 38.63 0.89 12.71 -26.52 0.30 -3.51 -9.70 0.00 0.00 0.00 29.65 13.57 -29.11 -3.97 -12.12 36.14 1.34 -20.00 -7.16 -0.92 6.11 -17.09 7.03 3.52 -3.49 7.90 4.30 -13.68 4.67 1.27 -13.14 13.58 18.97 -10.54 -24.34 29.02 14.82 -5.74 11.92 12.59 -0.00 -0.00 0.00 -43.49 36.75 -26.67 24.87 -36.07 -8.21 -0.00 -0.00 46.58 39.12 -4.98 -4.04 -7.12 0.00 -0.00 9.19 23.58 -4.81 -0.00 -0.00 0.00 32.50 -31.14 -41.84 -10.22 17.08 -1.54 0.00 0.00 17.92 -23.64 15.08 -6.50 7.12 -0.00 -0.00 2.66 -13.60 1.96
